<svg xmlns="http://www.w3.org/2000/svg" xmlns:xlink="http://www.w3.org/1999/xlink" width="367.867" height="381.211" viewBox="0 0 367.867 381.211"><defs><style>.a,.c,.d{fill:none;}.b{fill:#97eeff;}.c,.d{stroke:#213b55;stroke-linecap:round;stroke-miterlimit:10;stroke-width:4px;}.c{stroke-linejoin:round;}.d{stroke-linejoin:bevel;}.e{fill:#043f53;opacity:0.2;}.f{clip-path:url(#a);}.g{fill:#203344;}.h{fill:#eeeef0;}.i{fill:#233f5b;}</style><clipPath id="a"><path class="a" d="M0,0H36V18H0Z" transform="translate(0)"/></clipPath></defs><g transform="translate(1.867 18.736)"><g transform="translate(0.802 0)"><path class="b" d="M127.279,0,180,52.721v74.558L127.279,180H52.721L0,127.279V52.721L52.721,0Z" transform="matrix(0.891, 0.454, -0.454, 0.891, 204.442, 46.973)"/><path class="c" d="M73,0S72,46,50,46,0,0,0,0" transform="translate(201.198 248)"/><path class="d" d="M154,24.234s-23.32-16.586-64-23S6.991,15.494,6.991,15.494L0,2.234" transform="translate(0 212.117) rotate(-25)"/><path class="c" d="M27,85s-54-22,0-46L81,15,90,0" transform="translate(174.198)"/><path class="c" d="M0,0S7.014,39.555,8,65s-3,64-3,64H22" transform="translate(166.198 227)"/><ellipse class="e" cx="53" cy="5.016" rx="53" ry="5.016" transform="translate(156.192 352.443)"/><g transform="matrix(0.391, 0.921, -0.921, 0.391, 230.131, 153.887)"><path class="a" d="M0,0H36V18H0Z" transform="translate(0)"/><g class="f" transform="translate(0)"><path class="g" d="M36,0A18,18,0,0,1,18,18,18,18,0,0,1,0,0" transform="translate(0)"/></g></g></g><g transform="translate(227.471 -18.736) rotate(45)"><path class="a" d="M0,0H195.909V169.872H0Z" transform="translate(0 0)"/></g><g transform="matrix(0.309, 0.951, -0.951, 0.309, 265.393, 127.156)"><ellipse class="h" cx="6" cy="5.995" rx="6" ry="5.995" transform="translate(0 9.29) rotate(-11)"/><ellipse class="h" cx="6" cy="5.995" rx="6" ry="5.995" transform="translate(45 2.29) rotate(-11)"/><ellipse class="i" cx="3" cy="2.997" rx="3" ry="2.997" transform="translate(4.135 9.76) rotate(-11)"/><ellipse class="i" cx="3" cy="2.997" rx="3" ry="2.997" transform="translate(49.135 2.76) rotate(-11)"/></g></g></svg>