<svg xmlns="http://www.w3.org/2000/svg" width="470.681" height="540.137" viewBox="0 0 470.681 540.137"><defs><style>.a{fill:#043f53;opacity:0.2;}.b,.c,.f,.g{fill:none;stroke:#233f5b;stroke-miterlimit:10;}.b,.c{stroke-linecap:round;stroke-width:4px;}.c{stroke-linejoin:round;}.d{fill:#eda9c4;}.e{fill:#213b55;}.f,.g{stroke-width:2px;}.g{stroke-linecap:square;}.h{fill:#eeeef0;}.i{fill:#233f5b;}</style></defs><g transform="translate(-0.34 1.492)"><g transform="translate(0 11.868)"><g transform="translate(108.672 492.3)"><ellipse class="a" cx="45.965" cy="5.385" rx="45.965" ry="5.385" transform="translate(0 23.707)"/><ellipse class="a" cx="24.334" cy="2.692" rx="24.334" ry="2.692" transform="translate(70.59 0)"/></g><path class="b" d="M0,95.312C4.577,95.312,139.072,62.269,139.072,0" transform="translate(202.959 46.065)"/><path class="c" d="M0,0S37.634,90.269,37.622,161.747c0,24.33-5.468,96.186-14.35,108.587l36.315,6.314" transform="translate(109.399 240.197)"/><path class="c" d="M24.655,0C52.923,37.7,74.306,88.651,50.58,142.593c0,0-11.288,24.445-50.58,32.217l15.153,35.171" transform="translate(187.806 210.878)"/><path class="d" d="M109.765,3.893a7.03,7.03,0,0,1,12.583,0l108.8,218.387a7.03,7.03,0,0,1-6.289,10.165l-217.826.112A7.03,7.03,0,0,1,.74,222.392Z" transform="matrix(0.985, -0.174, 0.174, 0.985, 0.349, 40.353)"/><g transform="translate(40.676 195.864)"><path class="b" d="M27.043,0s-66.6,158.17,9.225,238.258" transform="matrix(1, 0.017, -0.017, 1, 4.614, 0.55)"/></g></g><path class="e" d="M.145,1.634A1.076,1.076,0,0,1,.59.138,1.181,1.181,0,0,1,2.152.56c.092.154,5.3,8.24,26.083,8.24,21,0,27.623-8.264,27.688-8.348a1.184,1.184,0,0,1,1.6-.236,1.066,1.066,0,0,1,.257,1.529C57.5,2.122,50.538,11,28.234,11,5.84,11,.366,2.017.145,1.634Z" transform="translate(107 170)"/><g transform="translate(60.587 103.921) rotate(-9)"><g transform="translate(0.333 0.763)"><ellipse class="f" cx="30.172" cy="30.08" rx="30.172" ry="30.08" transform="translate(70.401 0.051)"/><ellipse class="f" cx="30.172" cy="30.08" rx="30.172" ry="30.08" transform="translate(0 0.051)"/><path class="g" d="M.174,1.472,13.287,1.4" transform="translate(58.77 16.466)"/></g></g><g transform="translate(99 118)"><ellipse class="h" cx="6" cy="5.995" rx="6" ry="5.995" transform="translate(0.966 10.255) rotate(-11)"/><ellipse class="h" cx="6" cy="5.995" rx="6" ry="5.995" transform="translate(45.966 3.255) rotate(-11)"/><ellipse class="i" cx="3" cy="2.997" rx="3" ry="2.997" transform="translate(4.483 12.627) rotate(-11)"/><ellipse class="i" cx="3" cy="2.997" rx="3" ry="2.997" transform="translate(49.483 5.627) rotate(-11)"/></g><path class="b" d="M0,53.93,153.654,0" transform="matrix(0.996, -0.087, 0.087, 0.996, 311.085, 14.067)"/></g></svg>