<svg xmlns="http://www.w3.org/2000/svg" xmlns:xlink="http://www.w3.org/1999/xlink" width="208.402" height="228" viewBox="0 0 208.402 228"><defs><style>.a{fill:none;}.b{fill:#213b55;}.c{clip-path:url(#a);}.d{clip-path:url(#b);}.e{fill:#97eeff;}.f{fill:#7ccced;}.g{fill:#90d2ea;}.h{fill:#eeeef0;}.i{fill:#043f53;opacity:0.2;}</style><clipPath id="a"><path class="a" d="M0,0H135.829V75.68H0Z" transform="translate(0.573 0.641)"/></clipPath><clipPath id="b"><path class="a" d="M0,0H179.63V28.356H0Z" transform="translate(0 0.359)"/></clipPath></defs><path class="b" d="M9.989,70H1.29a1.288,1.288,0,1,1,0-2.576H8.163C-1.81,38.9-1.508,19.01,9.07,8.289c10.8-10.95,31.015-11.051,60.088-.3a1.288,1.288,0,1,1-.9,2.415C40.23.038,20.934-.063,10.909,10.1s-9.936,29.747.3,58.181A1.289,1.289,0,0,1,9.989,70" transform="translate(6 149)"/><g transform="translate(72 145)"><path class="a" d="M0,0H135.829V75.68H0Z" transform="translate(0.573 0.641)"/><g class="c"><path class="b" d="M133.263,75.68a1.277,1.277,0,0,1-1.277-1.418l1.167-11.014c-5.116-1.312-27.586-7.257-53.013-16.606C41.338,32.375,14.49,17.409.342,2.156A1.284,1.284,0,0,1,2.226.411c33.13,35.717,131.636,60.376,132.628,60.621a1.285,1.285,0,0,1,.969,1.381l-1.285,12.118a1.283,1.283,0,0,1-1.274,1.149" transform="translate(0.573 0.641)"/></g></g><g transform="translate(0 70)"><path class="a" d="M0,0H179.63V28.356H0Z" transform="translate(0 0.359)"/><g class="d"><path class="b" d="M178.345,28.356a1.445,1.445,0,0,1-.185-.013L1.1,2.566A1.289,1.289,0,0,1,1.469.014L178.528,25.792a1.289,1.289,0,0,1-.183,2.565" transform="translate(0 0.359)"/></g></g><path class="e" d="M29.5,194A29.436,29.436,0,0,1,0,164.629V29.369a29.5,29.5,0,0,1,59,0v135.26A29.435,29.435,0,0,1,29.5,194" transform="translate(59)"/><path class="f" d="M0,3H59V0H0Z" transform="translate(59 32)"/><path class="g" d="M11.711,8a1.286,1.286,0,0,1-.592-.145L.692,2.433A1.288,1.288,0,0,1,1.88.146L12.305,5.569A1.288,1.288,0,0,1,11.711,8" transform="translate(37 32)"/><path class="g" d="M1.289,8a1.289,1.289,0,0,1-.6-2.432L11.119.146a1.288,1.288,0,1,1,1.187,2.285L1.879,7.855A1.274,1.274,0,0,1,1.289,8" transform="translate(127 32)"/><path class="g" d="M15.717,3H1.285A1.405,1.405,0,0,1,0,1.5,1.405,1.405,0,0,1,1.285,0H15.717A1.4,1.4,0,0,1,17,1.5,1.4,1.4,0,0,1,15.717,3" transform="translate(32 46)"/><path class="g" d="M15.717,3H1.283A1.4,1.4,0,0,1,0,1.5,1.4,1.4,0,0,1,1.283,0H15.717A1.4,1.4,0,0,1,17,1.5,1.4,1.4,0,0,1,15.717,3" transform="translate(127 46)"/><path class="b" d="M21,0A10.259,10.259,0,0,1,10.5,10,10.258,10.258,0,0,1,0,0" transform="translate(78 81)"/><path class="h" d="M12,6A6,6,0,1,1,6,0a6,6,0,0,1,6,6" transform="translate(69 50)"/><path class="h" d="M12,6A6,6,0,1,1,6,0a6,6,0,0,1,6,6" transform="translate(95 50)"/><path class="b" d="M6,3A3,3,0,1,1,3,0,3,3,0,0,1,6,3" transform="translate(72 53)"/><path class="b" d="M6,3A3,3,0,1,1,3,0,3,3,0,0,1,6,3" transform="translate(98 53)"/><path class="i" d="M69,4.5C69,6.985,53.554,9,34.5,9S0,6.985,0,4.5,15.446,0,34.5,0,69,2.015,69,4.5" transform="translate(53 219)"/></svg>