<svg xmlns="http://www.w3.org/2000/svg" width="1931.319" height="534.172" viewBox="0 0 1931.319 534.172"><defs><style>.a{fill:#eda9c4;}.b{fill:#ffcf61;}.c{fill:#97eeff;}</style></defs><g transform="translate(-0.452 -0.48)"><circle class="a" cx="98.5" cy="98.5" r="98.5" transform="translate(252.611 299.48)"/><circle class="a" cx="97" cy="97" r="97" transform="translate(564.611 163.48)"/><circle class="a" cx="97" cy="97" r="97" transform="translate(1737.772 313.48)"/><path class="a" d="M63,0l63,126H0Z" transform="translate(1151.611 195.475) rotate(45)"/><path class="b" d="M79,0l55.861,23.139L158,79l-23.139,55.861L79,158,23.139,134.861,0,79,23.139,23.139Z" transform="translate(382.845 206.028) rotate(-14)"/><path class="b" d="M79,0l55.861,23.139L158,79l-23.139,55.861L79,158,23.139,134.861,0,79,23.139,23.139Z" transform="translate(1622.772 227.704) rotate(-14)"/><path class="c" d="M111,0,216.567,76.7,176.244,200.8H45.756L5.433,76.7Z" transform="translate(441.611 299.48)"/><rect class="b" width="88" height="270" rx="44" transform="matrix(0.883, 0.469, -0.469, 0.883, 1537.368, 225.57)"/><rect class="b" width="88" height="270" rx="44" transform="translate(0.452 249.098) rotate(-17)"/><rect class="c" width="136" height="136" transform="translate(1531.772 112.382) rotate(-14)"/><rect class="b" width="136" height="136" transform="translate(144.772 118.382) rotate(-14)"/><path class="a" d="M96,192V0a96,96,0,0,0,0,192Z" transform="matrix(-0.545, -0.839, 0.839, -0.545, 1567.896, 534.653)"/><path class="a" d="M96,192V0a96,96,0,0,0,0,192Z" transform="matrix(-0.545, -0.839, 0.839, -0.545, 168.057, 413.563)"/><rect class="c" width="86" height="232" transform="matrix(0.799, -0.602, 0.602, 0.799, 252.889, 52.236)"/></g></svg>