<svg xmlns="http://www.w3.org/2000/svg" xmlns:xlink="http://www.w3.org/1999/xlink" width="140" height="245.604" viewBox="0 0 140 245.604"><defs><style>.a,.b,.e{fill:none;}.b{stroke:#213b55;stroke-linecap:round;stroke-linejoin:round;stroke-width:2px;}.b,.e{stroke-miterlimit:10;}.c{fill:#043f53;opacity:0.2;}.d{fill:#eda9c4;}.e{stroke:#979797;}.f{clip-path:url(#a);}.g{clip-path:url(#b);}.h{fill:#eeeef0;}.i{fill:#213b55;}</style><clipPath id="a"><path class="a" d="M0,0H9.629V15.817H0Z" transform="translate(0 0.061)"/></clipPath><clipPath id="b"><path class="a" d="M0,0H2.668V20.984H0Z" transform="translate(0.333 0.396)"/></clipPath></defs><g transform="translate(-0.091 -0.396)"><path class="b" d="M.9.5V77.506" transform="translate(60 163)"/><path class="b" d="M.9.5V77.506" transform="translate(79 163)"/><g transform="translate(0 34)"><ellipse class="c" cx="45" cy="5" rx="45" ry="5" transform="translate(26.091 202)"/><rect class="d" width="140" height="129" transform="translate(0.091)"/><path class="e" d="M.5.5" transform="translate(5.777 105.156)"/></g><g transform="translate(51)"><g transform="translate(0 8)"><path class="a" d="M0,0H9.629V15.817H0Z" transform="translate(0 0.061)"/><g class="f"><path class="d" d="M8.3,15.817a1.327,1.327,0,0,1-1.173-.711L.162,2.008A1.375,1.375,0,0,1,.7.164,1.321,1.321,0,0,1,2.5.711l6.963,13.1a1.371,1.371,0,0,1-.537,1.843,1.3,1.3,0,0,1-.633.165" transform="translate(-0.001 0.061)"/></g></g><path class="d" d="M1.383,16A1.378,1.378,0,0,1,.168,13.969L7.4.719A1.393,1.393,0,0,1,9.276.166a1.373,1.373,0,0,1,.556,1.866L2.6,15.281A1.384,1.384,0,0,1,1.383,16" transform="translate(29.5 8)"/><g transform="translate(18)"><path class="a" d="M0,0H2.668V20.984H0Z" transform="translate(0.333 0.396)"/><g class="g"><path class="d" d="M1.335,20.985A1.345,1.345,0,0,1,0,19.631V1.354A1.345,1.345,0,0,1,1.335,0,1.344,1.344,0,0,1,2.668,1.354V19.631a1.344,1.344,0,0,1-1.333,1.354" transform="translate(0.333 0.396)"/></g></g><path class="d" d="M1.361,5A1.351,1.351,0,0,1,.852,2.395,29.527,29.527,0,0,1,24.166,2.4a1.351,1.351,0,0,1,.728,1.771,1.367,1.367,0,0,1-1.782.721A26.789,26.789,0,0,0,1.869,4.9a1.38,1.38,0,0,1-.508.1" transform="translate(7 19)"/></g><g transform="translate(46 72)"><path class="h" d="M6,12a6,6,0,1,1,6-6A6,6,0,0,1,6,12Z" transform="translate(36)"/><path class="h" d="M6,12a6,6,0,1,1,6-6A6,6,0,0,1,6,12Z"/><path class="i" d="M6,3A3,3,0,1,1,3,0,3,3,0,0,1,6,3" transform="translate(39 3)"/><path class="i" d="M6,3A3,3,0,1,1,3,0,3,3,0,0,1,6,3" transform="translate(3 3)"/></g><path class="i" d="M.11,1.247A.823.823,0,0,1,.447.105.893.893,0,0,1,1.632.427C1.7.545,5.649,6.714,21.413,6.714c15.926,0,20.95-6.3,21-6.369a.894.894,0,0,1,1.216-.18.816.816,0,0,1,.195,1.166c-.217.288-5.5,7.062-22.411,7.062C4.429,8.392.277,1.539.11,1.247Z" transform="translate(48 104)"/></g></svg>