<svg xmlns="http://www.w3.org/2000/svg" xmlns:xlink="http://www.w3.org/1999/xlink" width="185" height="207.664" viewBox="0 0 185 207.664"><defs><style>.a{fill:none;}.b{fill:#213b55;}.c{clip-path:url(#a);}.d{clip-path:url(#b);}.e{fill:#ffcf61;}.f{fill:#043f53;opacity:0.2;}</style><clipPath id="a"><path class="a" d="M0,0H39.474V55.066H0Z" transform="translate(0 0.802)"/></clipPath><clipPath id="b"><path class="a" d="M0,0H153.381V133H0Z" transform="translate(0.263 0.336)"/></clipPath></defs><g transform="translate(0 -0.336)"><path class="b" d="M1.2,55a1.169,1.169,0,0,1-.525-.124,1.214,1.214,0,0,1-.549-1.618l3.591-7.406a1.2,1.2,0,0,1,.73-.626c24.038-7.338,29.83-18.952,31.033-22.337,1.772-4.981,1.484-9.206-.85-12.559-3.6-5.176-11.84-7.912-23.816-7.912a1.2,1.2,0,0,1-1.2-1.209A1.2,1.2,0,0,1,10.811,0c12.79,0,21.7,3.091,25.773,8.94,2.77,3.977,3.168,9.084,1.146,14.766-1.653,4.651-8.078,16.219-32.094,23.682L2.274,54.323A1.2,1.2,0,0,1,1.2,55" transform="translate(146 55)"/><g transform="translate(0 54)"><path class="a" d="M0,0H39.474V55.066H0Z" transform="translate(0 0.802)"/><g class="c"><path class="b" d="M38.265,55.066a1.21,1.21,0,0,1-1.09-.678l-3.4-6.942C9.467,39.975,2.961,28.392,1.286,23.735-.76,18.046-.359,12.933,2.446,8.951,6.565,3.1,15.587,0,28.532,0a1.211,1.211,0,1,1,0,2.422c-12.121,0-20.458,2.739-24.1,7.922-2.362,3.357-2.653,7.587-.86,12.574,1.218,3.389,7.083,15.017,31.412,22.364a1.208,1.208,0,0,1,.738.627l3.636,7.415a1.212,1.212,0,0,1-.556,1.619,1.2,1.2,0,0,1-.532.124" transform="translate(0 0.802)"/></g></g><path class="b" d="M1.222,88a1.222,1.222,0,0,1-1.1-.676,1.191,1.191,0,0,1,.566-1.6l6.87-3.27V1.2A1.221,1.221,0,0,1,10,1.2V83.2a1.2,1.2,0,0,1-.689,1.079l-7.558,3.6a1.244,1.244,0,0,1-.531.12" transform="translate(77 117)"/><path class="b" d="M8.779,88a1.218,1.218,0,0,1-.531-.12l-7.56-3.6A1.2,1.2,0,0,1,0,83.2V1.2A1.209,1.209,0,0,1,1.22,0a1.209,1.209,0,0,1,1.22,1.2V82.452l6.87,3.27a1.192,1.192,0,0,1,.567,1.6,1.225,1.225,0,0,1-1.1.676" transform="translate(97 117)"/><g transform="translate(15)"><path class="a" d="M0,0H153.381V133H0Z" transform="translate(0.263 0.336)"/><g class="d"><path class="e" d="M115.036,0H38.345L0,66.5,38.345,133h76.691l38.345-66.5Z" transform="translate(0.263 0.335)"/></g></g><path class="b" d="M21.906,9C4.531,9,.284,1.65.113,1.337A.9.9,0,0,1,.458.113.89.89,0,0,1,1.669.458C1.741.584,5.779,7.2,21.906,7.2,38.2,7.2,43.338.439,43.388.37A.887.887,0,0,1,44.633.176a.9.9,0,0,1,.2,1.251C44.61,1.736,39.21,9,21.906,9" transform="translate(71 84)"/><path class="f" d="M32.5,8C14.551,8,0,6.209,0,4S14.551,0,32.5,0,65,1.791,65,4,50.449,8,32.5,8Z" transform="translate(60 200)"/><path class="b" d="M9.724,7A10.929,10.929,0,0,1,3.791,5.258,11.064,11.064,0,0,1,.114,1.336.9.9,0,1,1,1.677.46,9.3,9.3,0,0,0,4.758,3.746,9.144,9.144,0,0,0,9.724,5.2a9.2,9.2,0,0,0,7.639-4.075.9.9,0,1,1,1.482,1A10.986,10.986,0,0,1,9.724,7" transform="translate(58 46)"/><path class="b" d="M9.724,7A10.929,10.929,0,0,1,3.791,5.258,11.064,11.064,0,0,1,.114,1.336.9.9,0,1,1,1.677.46,9.3,9.3,0,0,0,4.758,3.746,9.144,9.144,0,0,0,9.724,5.2a9.2,9.2,0,0,0,7.639-4.075.9.9,0,1,1,1.482,1A10.986,10.986,0,0,1,9.724,7" transform="translate(107 46)"/></g></svg>